<?xml version="1.0" encoding="UTF-8"?>
<!DOCTYPE svg PUBLIC "-//W3C//DTD SVG 1.1//EN" "http://www.w3.org/Graphics/SVG/1.1/DTD/svg11.dtd">
<!-- Creator: CorelDRAW 2020 (64-Bit) -->
<svg xmlns="http://www.w3.org/2000/svg" xml:space="preserve" width="0.279992in" height="0.163331in" version="1.1" style="shape-rendering:geometricPrecision; text-rendering:geometricPrecision; image-rendering:optimizeQuality; fill-rule:evenodd; clip-rule:evenodd"
viewBox="0 0 279.99 163.33"
 xmlns:xlink="http://www.w3.org/1999/xlink"
 xmlns:xodm="http://www.corel.com/coreldraw/odm/2003">
 <defs>
  <style type="text/css">
   <![CDATA[
    .fil0 {fill:white}
   ]]>
  </style>
     <clipPath id="id0">
      <rect x="-0.02" y="4.78" width="277.76" height="161.99"/>
     </clipPath>
 </defs>
 <g id="Layer_x0020_1">
  <metadata id="CorelCorpID_0Corel-Layer"/>
  <g id="_1053877520">
   <g>
    <g style="clip-path:url(#id0)">
     <image x="-0.02" y="4.78" width="277.76" height="161.99" xlink:href="newBellLogo_Images\newBellLogo_ImgID1.png"/>
    </g>
   </g>
   <path class="fil0" d="M3.33 159.15l34.42 0.11c10.49,-0 23.28,0.29 33.21,-1.71 16.09,-3.24 28.09,-11.38 35.06,-25.43 1.01,-2.03 1.72,-4.78 2.65,-6.26 3.56,12.61 9.61,22.97 21.47,29.29 20.68,11.02 53.35,7.57 67.04,-6.49 -1.84,-3.44 -10.24,-11.46 -11.83,-14.66 -2.39,0.54 -14.36,10.59 -32.06,6.53 -5.85,-1.34 -9.76,-3.96 -12.8,-7.23 -2.7,-2.92 -5.91,-8.58 -5.79,-14.27l69.94 -0.06 0.15 40.26 26.09 0.03 0.12 -152.06 -26.13 0 -0.09 87.79c-2,-3.89 -1.55,-7.04 -6.48,-14.4 -9.25,-13.83 -25.44,-20.5 -43.33,-19.53 -13.94,0.76 -21.93,5.45 -30.17,11.83 -5.28,4.08 -10.44,11.61 -13.31,18.23 -0.91,2.09 -1.82,5.93 -2.95,7.67 -2.36,-6.43 -6.13,-12.16 -11.09,-16.66 -3.98,-3.61 -9.65,-6.92 -14.94,-8.91l-2.61 -1.28c8.87,-7.46 14.25,-15.59 14.1,-28.56 -0.16,-13.67 -6.95,-22.75 -14.52,-28.1 -14.3,-10.11 -37.13,-8.81 -54.95,-8.81 -6.54,0 -14.75,-0.44 -21.08,0.07l-0.12 152.61zm245.19 0.11l25.77 -0 0.1 -152.04 -25.76 -0.01 -0.11 152.06zm-218.17 -21.64c10.33,0.06 26.65,0.99 35.43,-2.26 20.94,-7.76 21.04,-37.41 0.02,-45.02 -9.82,-3.56 -24.18,-2.61 -35.35,-2.58l-0.1 49.86zm0 -70.26c8.46,0.05 18.09,0.65 25.18,-2.78 13.73,-6.63 14.42,-28.11 -0.04,-34.69 -6.96,-3.17 -16.72,-2.92 -25.14,-2.86l0 40.32zm104.81 32.73l44.83 -0c-1.6,-11.26 -9.65,-19.15 -22.06,-19.22 -11.84,-0.07 -21.52,8.56 -22.77,19.22z"/>
  </g>
 </g>
</svg>
